<svg width="41" height="41" viewBox="0 0 41 41" fill="none" xmlns="http://www.w3.org/2000/svg">
<path d="M0 0H39C40.1046 0 41 0.89543 41 2V39C41 40.1046 40.1046 41 39 41H0V0Z" fill="#344F63"/>
<path d="M23.291 22.1761H22.7038L22.4957 21.9754C23.2241 21.1281 23.6627 20.028 23.6627 18.8313C23.6627 16.163 21.4997 14 18.8313 14C16.163 14 14 16.163 14 18.8313C14 21.4997 16.163 23.6627 18.8313 23.6627C20.028 23.6627 21.1281 23.2241 21.9754 22.4957L22.1761 22.7038V23.291L25.8925 27L27 25.8925L23.291 22.1761ZM18.8313 22.1761C16.9806 22.1761 15.4866 20.6821 15.4866 18.8313C15.4866 16.9806 16.9806 15.4866 18.8313 15.4866C20.6821 15.4866 22.1761 16.9806 22.1761 18.8313C22.1761 20.6821 20.6821 22.1761 18.8313 22.1761Z" fill="white"/>
</svg>
